<svg xmlns="http://www.w3.org/2000/svg" version="1.1" xmlns:xlink="http://www.w3.org/1999/xlink" xmlns:svgjs="http://svgjs.dev/svgjs" width="1500" height="1500" viewBox="0 0 1500 1500"><rect width="1500" height="1500" fill="#ffffff"></rect><g transform="matrix(0.6666666666666666,0,0,0.6666666666666666,249.39393939393938,583.4947628468404)"><svg viewBox="0 0 396 132" data-background-color="#ffffff" preserveAspectRatio="xMidYMid meet" height="500" width="1500" xmlns="http://www.w3.org/2000/svg" xmlns:xlink="http://www.w3.org/1999/xlink"><g id="tight-bounds" transform="matrix(1,0,0,1,0.2400000000000091,-0.0639260873487899)"><svg viewBox="0 0 395.52 132.1276057659888" height="132.1276057659888" width="395.52"><g><svg viewBox="0 0 657.927517394755 219.78759011157445" height="132.1276057659888" width="395.52"><g transform="matrix(1,0,0,1,262.407517394755,64.76010158082516)"><svg viewBox="0 0 395.52 90.26738694992413" height="90.26738694992413" width="395.52"><g id="textblocktransform"><svg viewBox="0 0 395.52 90.26738694992413" height="90.26738694992413" width="395.52" id="textblock"><g><svg viewBox="0 0 395.52 90.26738694992413" height="90.26738694992413" width="395.52"><g transform="matrix(1,0,0,1,0,0)"><svg width="395.52" viewBox="4.85 -37.1 166.74 37.6" height="90.26738694992413" data-palette-color="#facc15"><g class="wordmark-text-0" data-fill-palette-color="primary" id="text-0"><path d="M5.45 0L5.45 0Q5.15 0 5-0.15 4.85-0.3 4.85-0.6L4.85-0.6 4.85-36.4Q4.85-36.75 5.03-36.93 5.2-37.1 5.5-37.1L5.5-37.1 17.05-37.1Q23.7-37.1 27.33-34.65 30.95-32.2 30.95-27.5L30.95-27.5Q30.95-24.5 29.38-22.43 27.8-20.35 24.4-19.15L24.4-19.15Q24.2-19.1 24.2-18.95 24.2-18.8 24.4-18.75L24.4-18.75Q28-17.85 29.93-15.68 31.85-13.5 31.85-9.9L31.85-9.9Q31.85-4.9 28.1-2.45 24.35 0 17.4 0L17.4 0 5.45 0ZM10.1-3.5L17.15-3.5Q22.05-3.5 24.45-5.08 26.85-6.65 26.85-10.05L26.85-10.05Q26.85-12.5 25.65-14.03 24.45-15.55 22.4-16.25 20.35-16.95 17.7-16.95L17.7-16.95 10.35-16.95Q9.65-16.95 9.65-16.35L9.65-16.35 9.65-4.2Q9.65-3.5 10.1-3.5L10.1-3.5ZM10.1-20.55L17.7-20.55Q19.2-20.55 20.7-20.85 22.2-21.15 23.43-21.88 24.65-22.6 25.38-23.83 26.1-25.05 26.1-26.95L26.1-26.95Q26.1-30.35 23.63-31.98 21.15-33.6 17.05-33.6L17.05-33.6 10.3-33.6Q9.65-33.6 9.65-33L9.65-33 9.65-21.2Q9.65-20.55 10.1-20.55L10.1-20.55ZM37.05-33.95L37.05-36.55Q37.05-36.8 37.17-36.95 37.3-37.1 37.65-37.1L37.65-37.1 64.55-37.1Q64.85-37.1 65-36.95 65.15-36.8 65.15-36.55L65.15-36.55 65.15-33.95Q65.15-33.45 64.55-33.45L64.55-33.45 54.4-33.45Q53.85-33.45 53.85-32.95L53.85-32.95 53.85-0.65Q53.85 0 53.25 0L53.25 0 49.65 0Q49.05 0 49.05-0.65L49.05-0.65 49.05-32.9Q49.05-33.45 48.55-33.45L48.55-33.45 37.65-33.45Q37.05-33.45 37.05-33.95L37.05-33.95ZM71.75 0L71.75 0Q71.1 0 71.1-0.65L71.1-0.65 71.1-36.45Q71.1-37.1 71.65-37.1L71.65-37.1 74.6-37.1Q75.15-37.1 75.15-36.5L75.15-36.5 75.15-23.15Q75.15-22.9 75.25-22.85 75.35-22.8 75.6-23L75.6-23Q77.35-24.35 78.82-25.25 80.3-26.15 81.72-26.58 83.15-27 84.85-27L84.85-27Q88.75-27 90.8-24.93 92.85-22.85 92.85-19.4L92.85-19.4 92.85-0.8Q92.85 0 92.1 0L92.1 0 89.3 0Q88.95 0 88.8-0.18 88.65-0.35 88.65-0.65L88.65-0.65 88.65-18.5Q88.65-20.95 87.4-22.33 86.15-23.7 83.45-23.7L83.45-23.7Q82-23.7 80.72-23.23 79.45-22.75 78.15-21.88 76.85-21 75.3-19.65L75.3-19.65 75.3-0.75Q75.3 0 74.5 0L74.5 0 71.75 0ZM103.04-11.6L103.04-11.6Q103.04-9.15 104.22-7.13 105.39-5.1 107.37-3.9 109.34-2.7 111.79-2.7L111.79-2.7Q114.29-2.7 116.24-3.73 118.19-4.75 119.59-6.85L119.59-6.85Q119.79-7.05 119.92-7.08 120.04-7.1 120.29-7L120.29-7 122.39-5.95Q122.84-5.7 122.49-5.25L122.49-5.25Q121.14-3.25 119.52-1.98 117.89-0.7 115.89-0.1 113.89 0.5 111.39 0.5L111.39 0.5Q107.69 0.5 104.84-1.2 101.99-2.9 100.34-5.95 98.69-9 98.69-13L98.69-13Q98.69-17.35 100.37-20.48 102.04-23.6 104.92-25.3 107.79-27 111.34-27L111.34-27Q114.99-27 117.69-25.4 120.39-23.8 121.89-20.75 123.39-17.7 123.39-13.4L123.39-13.4Q123.39-13.05 123.32-12.7 123.24-12.35 122.64-12.35L122.64-12.35 103.49-12.35Q103.29-12.35 103.17-12.13 103.04-11.9 103.04-11.6L103.04-11.6ZM103.14-15.1L118.34-15.1Q118.89-15.1 119.04-15.23 119.19-15.35 119.19-15.8L119.19-15.8Q119.19-17.95 118.27-19.83 117.34-21.7 115.62-22.85 113.89-24 111.44-24L111.44-24Q108.74-24 106.89-22.73 105.04-21.45 104.09-19.4 103.14-17.35 103.14-15.1L103.14-15.1ZM129.99 0L129.99 0Q129.64 0 129.47-0.18 129.29-0.35 129.29-0.65L129.29-0.65 129.29-25.85Q129.29-26.5 129.84-26.5L129.84-26.5 132.74-26.5Q133.29-26.5 133.29-25.95L133.29-25.95 133.29-22.7Q133.29-22.4 133.44-22.35 133.59-22.3 133.84-22.55L133.84-22.55Q135.14-24.1 136.42-25.08 137.69-26.05 138.99-26.53 140.29-27 141.59-27L141.59-27Q143.34-27 143.34-26.35L143.34-26.35 143.34-23.35Q143.34-22.85 142.89-22.95L142.89-22.95Q142.44-23 141.87-23.05 141.29-23.1 140.64-23.1L140.64-23.1Q139.54-23.1 138.29-22.63 137.04-22.15 135.97-21.3 134.89-20.45 134.19-19.4 133.49-18.35 133.49-17.3L133.49-17.3 133.49-0.75Q133.49 0 132.74 0L132.74 0 129.99 0ZM151.24-11.6L151.24-11.6Q151.24-9.15 152.41-7.13 153.59-5.1 155.56-3.9 157.54-2.7 159.99-2.7L159.99-2.7Q162.49-2.7 164.44-3.73 166.39-4.75 167.79-6.85L167.79-6.85Q167.99-7.05 168.11-7.08 168.24-7.1 168.49-7L168.49-7 170.59-5.95Q171.04-5.7 170.69-5.25L170.69-5.25Q169.34-3.25 167.71-1.98 166.09-0.7 164.09-0.1 162.09 0.5 159.59 0.5L159.59 0.5Q155.89 0.5 153.04-1.2 150.19-2.9 148.54-5.95 146.89-9 146.89-13L146.89-13Q146.89-17.35 148.56-20.48 150.24-23.6 153.11-25.3 155.99-27 159.54-27L159.54-27Q163.19-27 165.89-25.4 168.59-23.8 170.09-20.75 171.59-17.7 171.59-13.4L171.59-13.4Q171.59-13.05 171.51-12.7 171.44-12.35 170.84-12.35L170.84-12.35 151.69-12.35Q151.49-12.35 151.36-12.13 151.24-11.9 151.24-11.6L151.24-11.6ZM151.34-15.1L166.54-15.1Q167.09-15.1 167.24-15.23 167.39-15.35 167.39-15.8L167.39-15.8Q167.39-17.95 166.46-19.83 165.54-21.7 163.81-22.85 162.09-24 159.64-24L159.64-24Q156.94-24 155.09-22.73 153.24-21.45 152.29-19.4 151.34-17.35 151.34-15.1L151.34-15.1Z" fill="#000000" data-fill-palette-color="primary"></path></g></svg></g></svg></g></svg></g></svg></g><g><svg viewBox="0 0 219.78759011157445 219.78759011157445" height="219.78759011157445" width="219.78759011157445"><g><svg></svg></g><g id="icon-0"><svg viewBox="0 0 219.78759011157445 219.78759011157445" height="219.78759011157445" width="219.78759011157445"><g><path d="M0 109.894c0-60.693 49.201-109.894 109.894-109.894 60.693 0 109.894 49.201 109.894 109.894 0 60.693-49.201 109.894-109.894 109.894-60.693 0-109.894-49.201-109.894-109.894zM109.894 211.647c56.197 0 101.753-45.557 101.753-101.753 0-56.197-45.557-101.753-101.753-101.754-56.197 0-101.753 45.557-101.754 101.754 0 56.197 45.557 101.753 101.754 101.753z" data-fill-palette-color="accent" fill="#000000" stroke="transparent"></path></g><g transform="matrix(1,0,0,1,46.2984581237634,52.75077969876945)"><svg viewBox="0 0 127.19067386404764 114.28603071403555" height="114.28603071403555" width="127.19067386404764"><g><svg xmlns="http://www.w3.org/2000/svg" xmlns:xlink="http://www.w3.org/1999/xlink" version="1.1" x="0" y="0" viewBox="1.6165235823033894 5.312084950420108 96.60707536238601 86.80541463173783" enable-background="new 0 0 100 100" xml:space="preserve" height="114.28603071403555" width="127.19067386404764" class="icon-cg-0" data-fill-palette-color="accent" id="cg-0"><g fill="#facc15" data-fill-palette-color="accent"><g fill="#facc15" data-fill-palette-color="accent"><path fill-rule="evenodd" clip-rule="evenodd" d="M37.094 26.532c8.682-0.118 11.859-5.741 13.2-13.2-0.266-1.109-1.714-1.036-1.237-2.887 0.682-0.602 1.151-0.876 2.269-0.619 1.038 1.202 0.298 3.145 0 4.537-1.634 7.623-5.793 14.504-16.088 12.994 1.448 2.671 2.802 4.979 2.888 8.662 0.149 6.431-3.228 12.097-7.219 16.087-3.96 3.96-9.394 7.381-16.087 7.219-7.438-0.18-13.041-5.266-13.2-13.2C1.504 40.382 4.31 35.018 7.188 31.688c4.428-5.124 14.506-11.797 23.719-7.425 0.897 0.426 2.227 1.771 3.3 1.856 2.058 0.164 5.426-2.358 6.806-4.125 2.578-3.301 2.743-8.61 1.444-13.2-0.501-0.764-1.864-0.376-2.063-1.65-0.132-0.846 0.897-2.354 2.269-1.65 0.895 0.459 1.869 6.592 1.856 8.869C44.484 20.581 40.839 24.587 37.094 26.532zM18.944 32.307c-1.15 4.996 6.015 4.675 5.775 0.619-0.109-1.847-1.178-2.952-3.506-2.475C19.771 30.746 19.083 31.698 18.944 32.307z" fill="#000000" data-fill-palette-color="accent"></path><path fill-rule="evenodd" clip-rule="evenodd" d="M95.05 27.769c-14.16-9.307-38.764-5.076-45.994 7.219 0.499-2.403 1.872-4.779 3.299-7.012 4.317-6.751 11.514-14.115 21.656-14.85C84.864 12.339 91.754 19.855 95.05 27.769z" fill="#000000" data-fill-palette-color="accent"></path><path fill-rule="evenodd" clip-rule="evenodd" d="M87.418 71.494c-0.114-10.389-5.282-17.452-11.344-23.513-6.513-6.513-16.751-12.137-27.843-9.075-0.87 0.035 0.003-0.317 0-0.619 7.003-5.714 15.332-11.902 27.225-11.962 12.203-0.063 21.792 7.351 22.688 18.975C98.962 55.93 93.342 66.142 87.418 71.494z" fill="#000000" data-fill-palette-color="accent"></path><path fill-rule="evenodd" clip-rule="evenodd" d="M52.975 42.619c0.771 0.125-0.314 0.821-0.619 1.237-5.28 7.235-11.419 14.906-18.768 20.213-0.777-1.768-0.838-4.25-0.825-6.807 4.137-3.563 7.602-7.798 9.281-13.818C44.964 42.516 49.413 41.621 52.975 42.619z" fill="#000000" data-fill-palette-color="accent"></path><path fill-rule="evenodd" clip-rule="evenodd" d="M60.193 44.682c2.78 1.139 5.157 2.68 7.425 4.331-7.716 10.983-16.427 20.973-27.637 28.463-1.271-1.548-2.507-3.131-3.3-5.156C46.61 65.198 55.675 57.213 60.193 44.682z" fill="#000000" data-fill-palette-color="accent"></path><path fill-rule="evenodd" clip-rule="evenodd" d="M72.568 53.551c2.364 1.966 3.934 4.729 5.775 7.218-7.53 10.414-15.438 20.449-26.606 27.226-2.238-1.406-4.26-3.027-6.394-4.538C57.194 76.264 67.255 67.281 72.568 53.551z" fill="#000000" data-fill-palette-color="accent"></path><path fill-rule="evenodd" clip-rule="evenodd" d="M81.644 69.638c1.15 1.996 1.231 5.982 0.825 8.869-1.061 1.136-2.343 1.897-3.507 2.887-3.222 2.74-6.344 5.979-8.25 10.313-2.721 0.574-6.337 0.52-9.075 0C69.601 85.645 76.797 78.816 81.644 69.638z" fill="#000000" data-fill-palette-color="accent"></path><path fill-rule="evenodd" clip-rule="evenodd" d="M83.293 83.25c-0.2 1.473-1.36 5.563 0 7.425-2.467-0.196-5.818-0.074-7.837 1.237C77.57 88.527 80.372 85.829 83.293 83.25z" fill="#000000" data-fill-palette-color="accent"></path></g></g></svg></g></svg></g></svg></g></svg></g></svg></g><defs></defs></svg><rect width="395.52" height="132.1276057659888" fill="none" stroke="none" visibility="hidden"></rect></g></svg></g></svg>